<svg aria-hidden="true" style="position: absolute; width: 0; height: 0; overflow: hidden;" version="1.1" xmlns="http://www.w3.org/2000/svg" xmlns:xlink="http://www.w3.org/1999/xlink">
<defs>
<symbol id="icon-smartphone" viewBox="0 0 20 32">
<path d="M17 0h-14c-1.654 0-3 1.346-3 3v26c0 1.654 1.346 3 3 3h14c1.654 0 3-1.346 3-3v-26c0-1.654-1.346-3-3-3zM3 2h14c0.552 0 1 0.448 1 1v0 21h-16v-21c0-0.552 0.448-1 1-1v0zM17 30h-14c-0.552 0-1-0.448-1-1v0-3h16v3c0 0.552-0.448 1-1 1v0z"></path>
<path d="M4.708 27.478c0.18 0.163 0.293 0.399 0.293 0.66s-0.113 0.497-0.292 0.659l-0.001 0.001c-0.186 0.17-0.435 0.275-0.708 0.275s-0.522-0.104-0.709-0.275l0.001 0.001c-0.18-0.163-0.293-0.399-0.293-0.66s0.113-0.497 0.292-0.659l0.001-0.001c0.186-0.17 0.435-0.275 0.708-0.275s0.522 0.104 0.709 0.275l-0.001-0.001z"></path>
</symbol>
<symbol id="icon-github-1" viewBox="0 0 32 32">
<path d="M16 0.396c-8.84 0-16 7.164-16 16 0 7.071 4.584 13.067 10.94 15.18 0.8 0.151 1.093-0.344 1.093-0.769 0-0.38-0.013-1.387-0.020-2.72-4.451 0.965-5.389-2.147-5.389-2.147-0.728-1.847-1.78-2.34-1.78-2.34-1.449-0.992 0.112-0.972 0.112-0.972 1.607 0.112 2.451 1.648 2.451 1.648 1.427 2.447 3.745 1.74 4.66 1.331 0.144-1.035 0.556-1.74 1.013-2.14-3.553-0.4-7.288-1.776-7.288-7.907 0-1.747 0.62-3.173 1.647-4.293-0.18-0.404-0.72-2.031 0.14-4.235 0 0 1.34-0.429 4.4 1.64 1.28-0.356 2.64-0.532 4-0.54 1.36 0.008 2.72 0.184 4 0.54 3.040-2.069 4.38-1.64 4.38-1.64 0.86 2.204 0.32 3.831 0.16 4.235 1.020 1.12 1.64 2.547 1.64 4.293 0 6.147-3.74 7.5-7.3 7.893 0.56 0.48 1.080 1.461 1.080 2.96 0 2.141-0.020 3.861-0.020 4.381 0 0.42 0.28 0.92 1.1 0.76 6.401-2.099 10.981-8.099 10.981-15.159 0-8.836-7.164-16-16-16z"></path>
</symbol>
<symbol id="icon-maildotru-1" viewBox="0 0 32 32">
<path d="M20.813 16c0 2.653-2.16 4.813-4.813 4.813s-4.813-2.16-4.813-4.813c0-2.653 2.16-4.813 4.813-4.813s4.813 2.16 4.813 4.813zM16 0c-8.823 0-16 7.177-16 16s7.177 16 16 16c3.232 0 6.348-0.963 9.013-2.783l0.045-0.032-2.156-2.505-0.036 0.023c-1.937 1.265-4.309 2.017-6.856 2.017-0.004 0-0.008 0-0.011 0h0.001c-7.013 0-12.72-5.707-12.72-12.72s5.707-12.72 12.72-12.72c7.013 0 12.72 5.707 12.72 12.72-0.002 0.97-0.111 1.913-0.316 2.819l0.016-0.086c-0.401 1.652-1.559 2.157-2.427 2.091-0.872-0.071-1.893-0.693-1.901-2.215v-2.609c-0.005-4.468-3.625-8.088-8.091-8.093h-0c-4.468 0.005-8.089 3.625-8.093 8.093v0c0.005 4.468 3.625 8.089 8.093 8.093h0c0.006 0 0.013 0 0.019 0 2.236 0 4.258-0.914 5.713-2.389l0.001-0.001c0.938 1.456 2.551 2.407 4.386 2.407 0.014 0 0.029-0 0.043-0h-0.002c1.165 0 2.32-0.389 3.249-1.095 0.959-0.729 1.675-1.781 2.071-3.047 0.063-0.205 0.18-0.672 0.18-0.676l0.003-0.017c0.233-1.013 0.337-2.027 0.337-3.276 0-8.823-7.177-16-16-16z"></path>
</symbol>
<symbol id="icon-facebook-1" viewBox="0 0 32 32">
<path d="M32 16.097c0-8.836-7.164-16-16-16s-16 7.164-16 16c0 7.987 5.851 14.605 13.5 15.805v-11.18h-4.063v-4.627h4.063v-3.523c0-4.009 2.389-6.225 6.044-6.225 1.749 0 3.581 0.313 3.581 0.313v3.937h-2.019c-1.988 0-2.608 1.233-2.608 2.499v3h4.437l-0.709 4.627h-3.728v11.18c7.651-1.201 13.501-7.821 13.501-15.807z"></path>
</symbol>
<symbol id="icon-linkedin" viewBox="0 0 32 32">
<path d="M27.263 27.269h-4.739v-7.425c0-1.771-0.036-4.049-2.469-4.049-2.471 0-2.848 1.927-2.848 3.919v7.556h-4.739v-15.269h4.552v2.081h0.061c0.636-1.2 2.183-2.467 4.493-2.467 4.801 0 5.689 3.16 5.689 7.273v8.381zM7.116 9.911c-1.525 0-2.751-1.235-2.751-2.753 0-1.517 1.227-2.751 2.751-2.751 1.52 0 2.752 1.233 2.752 2.751 0 1.519-1.233 2.753-2.752 2.753zM9.492 27.269h-4.752v-15.269h4.752v15.269zM29.633 0h-27.272c-1.305 0-2.361 1.032-2.361 2.305v27.389c0 1.275 1.056 2.305 2.361 2.305h27.268c1.304 0 2.371-1.031 2.371-2.305v-27.389c0-1.273-1.067-2.305-2.371-2.305h0.004z"></path>
</symbol>
</defs>
</svg>
